<?xml version="1.0" encoding="utf-8"?>
<!-- Generator: Adobe Illustrator 24.1.2, SVG Export Plug-In . SVG Version: 6.00 Build 0)  -->
<svg version="1.1" id="Layer_1" xmlns="http://www.w3.org/2000/svg" xmlns:xlink="http://www.w3.org/1999/xlink" x="0px" y="0px"
	 viewBox="0 0 100 28" style="enable-background:new 0 0 100 28;" xml:space="preserve">
<style type="text/css">
	.st0{fill-rule:evenodd;clip-rule:evenodd;fill:#FFFFFF;}
	.st1{fill:#9B9B9B;}
	.st2{enable-background:new    ;}
</style>
<desc>Created with Sketch.</desc>
<g id="Page-1_1_">
	<g id="Main_v3b_tooltip_1b_2_" transform="translate(-451.000000, -1947.000000)">
		<path class="st0" d="M529.5,1975h-55.1c-5.8,0-10.5-4.7-10.5-10.5v-6.9c0-5.8,4.7-10.5,10.5-10.5h55.1c5.8,0,10.5,4.7,10.5,10.5
			v6.9C540.1,1970.3,535.3,1975,529.5,1975z"/>
		<g>
			<path class="st1" d="M504,1960.9c0,2.1-1.5,3.1-2.9,3.1c-1.6,0-2.8-1.2-2.8-3c0-1.9,1.3-3.1,2.9-3.1
				C502.9,1957.9,504,1959.1,504,1960.9z M499.4,1960.9c0,1.3,0.7,2.2,1.8,2.2c1,0,1.8-0.9,1.8-2.3c0-1-0.5-2.2-1.7-2.2
				C500,1958.7,499.4,1959.8,499.4,1960.9z"/>
			<path class="st1" d="M505.4,1959.9c0-0.7,0-1.3,0-1.9h0.9l0,1h0c0.4-0.7,1.1-1.1,2.1-1.1c1.4,0,2.5,1.2,2.5,3
				c0,2.1-1.3,3.1-2.6,3.1c-0.8,0-1.4-0.3-1.8-0.9h0v3.2h-1V1959.9z M506.4,1961.5c0,0.2,0,0.3,0,0.4c0.2,0.7,0.8,1.2,1.6,1.2
				c1.1,0,1.8-0.9,1.8-2.2c0-1.2-0.6-2.2-1.7-2.2c-0.7,0-1.4,0.5-1.6,1.3c0,0.1-0.1,0.3-0.1,0.4V1961.5z"/>
			<path class="st1" d="M513.5,1956.3v1.7h1.5v0.8h-1.5v3.1c0,0.7,0.2,1.1,0.8,1.1c0.3,0,0.5,0,0.6-0.1l0,0.8
				c-0.2,0.1-0.5,0.1-0.9,0.1c-0.5,0-0.9-0.2-1.1-0.4c-0.3-0.3-0.4-0.8-0.4-1.5v-3.2h-0.9v-0.8h0.9v-1.4L513.5,1956.3z"/>
			<path class="st1" d="M517.3,1956.4c0,0.4-0.3,0.6-0.7,0.6c-0.4,0-0.6-0.3-0.6-0.6c0-0.4,0.3-0.7,0.7-0.7
				C517.1,1955.7,517.3,1956,517.3,1956.4z M516.2,1963.8v-5.8h1.1v5.8H516.2z"/>
			<path class="st1" d="M524.2,1960.9c0,2.1-1.5,3.1-2.9,3.1c-1.6,0-2.8-1.2-2.8-3c0-1.9,1.3-3.1,2.9-3.1
				C523.1,1957.9,524.2,1959.1,524.2,1960.9z M519.6,1960.9c0,1.3,0.7,2.2,1.8,2.2c1,0,1.8-0.9,1.8-2.3c0-1-0.5-2.2-1.7-2.2
				C520.2,1958.7,519.6,1959.8,519.6,1960.9z"/>
			<path class="st1" d="M525.6,1959.6c0-0.6,0-1.1,0-1.6h0.9l0.1,1h0c0.3-0.6,1-1.1,1.9-1.1c0.8,0,2.1,0.5,2.1,2.5v3.5h-1.1v-3.3
				c0-0.9-0.3-1.7-1.3-1.7c-0.7,0-1.2,0.5-1.4,1.1c0,0.1-0.1,0.3-0.1,0.5v3.5h-1.1V1959.6z"/>
		</g>
	</g>
</g>
<g id="Main_v3b_tooltip_1b_1_" transform="translate(-409.000000, -1948.000000)">
	<g id="Group-11" transform="translate(409.000000, 1948.000000)">
		<g class="st2">
			<path class="st1" d="M28,15.3v-1.8h4.7v4.3c-0.5,0.4-1.1,0.8-2,1.2c-0.9,0.3-1.7,0.5-2.6,0.5c-1.1,0-2.1-0.2-2.9-0.7
				s-1.5-1.1-1.9-2c-0.4-0.9-0.6-1.8-0.6-2.9s0.2-2.1,0.7-3s1.2-1.5,2.1-2c0.7-0.4,1.5-0.5,2.6-0.5c1.3,0,2.4,0.3,3.1,0.8
				c0.7,0.6,1.2,1.3,1.4,2.3l-2.2,0.4c-0.2-0.5-0.4-0.9-0.9-1.2c-0.4-0.3-0.9-0.5-1.6-0.5c-0.9,0-1.7,0.3-2.3,0.9
				c-0.6,0.6-0.8,1.5-0.8,2.7c0,1.3,0.3,2.2,0.8,2.9c0.6,0.6,1.3,1,2.2,1c0.5,0,0.9-0.1,1.4-0.3c0.5-0.2,0.8-0.4,1.2-0.6v-1.4H28
				V15.3z"/>
			<path class="st1" d="M34.7,19.2V8.5h7.4v1.8h-5.2v2.5h4.5v1.8h-4.5v4.6H34.7z"/>
		</g>
	</g>
</g>
</svg>
