<?xml version="1.0" encoding="utf-8"?>
<!-- Generator: Adobe Illustrator 21.1.0, SVG Export Plug-In . SVG Version: 6.00 Build 0)  -->
<svg version="1.1" id="Layer_1" xmlns="http://www.w3.org/2000/svg" xmlns:xlink="http://www.w3.org/1999/xlink" x="0px" y="0px"
	 viewBox="0 0 28 28" style="enable-background:new 0 0 28 28;" xml:space="preserve">
<style type="text/css">
	.st0{fill:#FFFFFF;}
	.st1{enable-background:new    ;}
	.st2{fill:#9B9B9B;}
</style>
<title>Group 11</title>
<desc>Created with Sketch.</desc>
<g id="Page-1">
	<g id="Main_v3b_tooltip_1b" transform="translate(-409.000000, -1948.000000)">
		<g id="Group-11" transform="translate(409.000000, 1948.000000)">
			<circle id="Oval-Copy-13" class="st0" cx="14" cy="14" r="14"/>
			<g class="st1">
				<path class="st2" d="M9.6,15.1v-1.8h4.7v4.3c-0.5,0.4-1.1,0.8-2,1.2c-0.9,0.3-1.7,0.5-2.6,0.5c-1.1,0-2.1-0.2-2.9-0.7
					c-0.8-0.5-1.5-1.1-1.9-2c-0.4-0.9-0.6-1.8-0.6-2.9s0.2-2.1,0.7-3s1.2-1.5,2.1-2c0.7-0.4,1.5-0.5,2.6-0.5c1.3,0,2.4,0.3,3.1,0.8
					c0.7,0.6,1.2,1.3,1.4,2.3L12,11.7c-0.2-0.5-0.4-0.9-0.9-1.2c-0.4-0.3-0.9-0.5-1.6-0.5c-0.9,0-1.7,0.3-2.3,0.9
					c-0.6,0.6-0.8,1.5-0.8,2.7c0,1.3,0.3,2.2,0.8,2.9c0.6,0.6,1.3,1,2.2,1c0.5,0,0.9-0.1,1.4-0.3c0.5-0.2,0.8-0.4,1.2-0.6v-1.4H9.6
					V15.1z"/>
				<path class="st2" d="M16.3,19V8.3h7.4v1.8h-5.2v2.5H23v1.8h-4.5V19H16.3z"/>
			</g>
		</g>
	</g>
</g>
</svg>
