<?xml version="1.0" encoding="utf-8"?>
<!-- Generator: Adobe Illustrator 24.1.2, SVG Export Plug-In . SVG Version: 6.00 Build 0)  -->
<svg version="1.1" id="Layer_1" xmlns="http://www.w3.org/2000/svg" xmlns:xlink="http://www.w3.org/1999/xlink" x="0px" y="0px"
	 viewBox="0 0 28 28" style="enable-background:new 0 0 28 28;" xml:space="preserve">
<style type="text/css">
	.st0{fill-rule:evenodd;clip-rule:evenodd;fill:#FFFFFF;}
	.st1{fill:#9B9B9B;}
</style>
<desc>Created with Sketch.</desc>
<g id="Page-1">
	<g id="Main_v3b_tooltip_1b" transform="translate(-451.000000, -1947.000000)">
		<g id="Group-12" transform="translate(451.000000, 1947.000000)">
			<circle id="Oval-Copy-14" class="st0" cx="14" cy="14" r="14"/>
		</g>
	</g>
</g>
<g>
	<path class="st1" d="M9.8,19h-2L3.5,8.4H6l2.7,7.4l2.7-7.4H14L9.8,19z"/>
	<path class="st1" d="M20,19.1c-3.3,0-5.5-2.3-5.5-5.4v0c0-3,2.3-5.4,5.5-5.4c1.9,0,3,0.5,4.1,1.4l-1.5,1.8
		c-0.8-0.7-1.5-1.1-2.7-1.1c-1.7,0-3,1.5-3,3.3v0c0,1.9,1.3,3.3,3.2,3.3c0.8,0,1.6-0.2,2.2-0.6v-1.5h-2.3v-2h4.6v4.6
		C23.4,18.3,21.9,19.1,20,19.1z"/>
</g>
</svg>
