<?xml version="1.0" encoding="utf-8"?>
<!-- Generator: Adobe Illustrator 24.1.2, SVG Export Plug-In . SVG Version: 6.00 Build 0)  -->
<svg version="1.1" id="Layer_1" xmlns="http://www.w3.org/2000/svg" xmlns:xlink="http://www.w3.org/1999/xlink" x="0px" y="0px"
	 viewBox="0 0 100 28" style="enable-background:new 0 0 100 28;" xml:space="preserve">
<style type="text/css">
	.st0{fill-rule:evenodd;clip-rule:evenodd;fill:#FFFFFF;}
	.st1{fill:#9B9B9B;}
</style>
<desc>Created with Sketch.</desc>
<g id="Page-1_1_">
	<g id="Main_v3b_tooltip_1b_2_" transform="translate(-451.000000, -1947.000000)">
		<path class="st0" d="M529.5,1975h-55.1c-5.8,0-10.5-4.7-10.5-10.5v-6.9c0-5.8,4.7-10.5,10.5-10.5h55.1c5.8,0,10.5,4.7,10.5,10.5
			v6.9C540.1,1970.3,535.3,1975,529.5,1975z"/>
		<g>
			<path class="st1" d="M504,1960.9c0,2.1-1.5,3.1-2.9,3.1c-1.6,0-2.8-1.2-2.8-3c0-1.9,1.3-3.1,2.9-3.1
				C502.9,1957.9,504,1959.1,504,1960.9z M499.4,1960.9c0,1.3,0.7,2.2,1.8,2.2c1,0,1.8-0.9,1.8-2.3c0-1-0.5-2.2-1.7-2.2
				C500,1958.7,499.4,1959.8,499.4,1960.9z"/>
			<path class="st1" d="M505.4,1959.9c0-0.7,0-1.3,0-1.9h0.9v1l0,0c0.4-0.7,1.1-1.1,2.1-1.1c1.4,0,2.5,1.2,2.5,3
				c0,2.1-1.3,3.1-2.6,3.1c-0.8,0-1.4-0.3-1.8-0.9l0,0v3.2h-1v-6.4H505.4z M506.4,1961.5c0,0.2,0,0.3,0,0.4c0.2,0.7,0.8,1.2,1.6,1.2
				c1.1,0,1.8-0.9,1.8-2.2c0-1.2-0.6-2.2-1.7-2.2c-0.7,0-1.4,0.5-1.6,1.3c0,0.1-0.1,0.3-0.1,0.4L506.4,1961.5L506.4,1961.5z"/>
			<path class="st1" d="M513.5,1956.3v1.7h1.5v0.8h-1.5v3.1c0,0.7,0.2,1.1,0.8,1.1c0.3,0,0.5,0,0.6-0.1v0.8
				c-0.2,0.1-0.5,0.1-0.9,0.1c-0.5,0-0.9-0.2-1.1-0.4c-0.3-0.3-0.4-0.8-0.4-1.5v-3.2h-0.9v-0.8h0.9v-1.4L513.5,1956.3z"/>
			<path class="st1" d="M517.3,1956.4c0,0.4-0.3,0.6-0.7,0.6s-0.6-0.3-0.6-0.6c0-0.4,0.3-0.7,0.7-0.7
				C517.1,1955.7,517.3,1956,517.3,1956.4z M516.2,1963.8v-5.8h1.1v5.8H516.2z"/>
			<path class="st1" d="M524.2,1960.9c0,2.1-1.5,3.1-2.9,3.1c-1.6,0-2.8-1.2-2.8-3c0-1.9,1.3-3.1,2.9-3.1
				C523.1,1957.9,524.2,1959.1,524.2,1960.9z M519.6,1960.9c0,1.3,0.7,2.2,1.8,2.2c1,0,1.8-0.9,1.8-2.3c0-1-0.5-2.2-1.7-2.2
				C520.2,1958.7,519.6,1959.8,519.6,1960.9z"/>
			<path class="st1" d="M525.6,1959.6c0-0.6,0-1.1,0-1.6h0.9l0.1,1l0,0c0.3-0.6,1-1.1,1.9-1.1c0.8,0,2.1,0.5,2.1,2.5v3.5h-1.1v-3.3
				c0-0.9-0.3-1.7-1.3-1.7c-0.7,0-1.2,0.5-1.4,1.1c0,0.1-0.1,0.3-0.1,0.5v3.5h-1.1L525.6,1959.6L525.6,1959.6z"/>
		</g>
	</g>
</g>
<g>
	<path class="st1" d="M27.9,19.2h-2L21.7,8.6h2.5l2.7,7.4l2.7-7.4h2.5L27.9,19.2z"/>
	<path class="st1" d="M38.2,19.3c-3.3,0-5.5-2.3-5.5-5.4v0c0-3,2.3-5.4,5.5-5.4c1.9,0,3,0.5,4.1,1.4l-1.5,1.8
		c-0.8-0.7-1.5-1.1-2.7-1.1c-1.7,0-3,1.5-3,3.3v0c0,1.9,1.3,3.3,3.2,3.3c0.8,0,1.6-0.2,2.2-0.6v-1.5h-2.3v-2h4.6v4.6
		C41.6,18.5,40.1,19.3,38.2,19.3z"/>
</g>
</svg>
