<?xml version="1.0" encoding="utf-8"?>
<!-- Generator: Adobe Illustrator 24.1.2, SVG Export Plug-In . SVG Version: 6.00 Build 0)  -->
<svg version="1.1" id="Layer_1" xmlns="http://www.w3.org/2000/svg" xmlns:xlink="http://www.w3.org/1999/xlink" x="0px" y="0px"
	 viewBox="0 0 28 28" style="enable-background:new 0 0 28 28;" xml:space="preserve">
<style type="text/css">
	.st0{fill-rule:evenodd;clip-rule:evenodd;fill:#F4F6F7;}
	.st1{fill:#696969;}
</style>
<desc>Created with Sketch.</desc>
<g id="Page-1">
	<g id="Main_v3b_tooltip_1b" transform="translate(-451.000000, -1947.000000)">
		<g id="Group-12" transform="translate(451.000000, 1947.000000)">
			<circle id="Oval-Copy-14" class="st0" cx="14" cy="14" r="14"/>
			<g>
				<path class="st1" d="M5.7,8.3h4c0.9,0,1.6,0.1,2,0.2c0.6,0.2,1.2,0.5,1.6,1s0.8,1.1,1,1.7c0.2,0.7,0.4,1.5,0.4,2.5
					c0,0.9-0.1,1.6-0.3,2.3c-0.3,0.8-0.7,1.4-1.1,1.9c-0.4,0.4-0.9,0.7-1.5,0.9C11.3,19,10.7,19,9.9,19H5.7V8.3z M7.9,10.1v7.1h1.6
					c0.6,0,1,0,1.3-0.1c0.4-0.1,0.6-0.2,0.9-0.4s0.4-0.6,0.6-1c0.1-0.5,0.2-1.1,0.2-2s-0.1-1.5-0.2-1.9c-0.1-0.4-0.4-0.8-0.6-1
					c-0.3-0.3-0.6-0.4-1-0.5c-0.3-0.1-0.9-0.1-1.8-0.1h-1V10.1z"/>
				<path class="st1" d="M16.6,19V8.3H24v1.8h-5.2v2.5h4.5v1.8h-4.5V19H16.6z"/>
			</g>
		</g>
	</g>
</g>
</svg>
