<?xml version="1.0" encoding="UTF-8"?>
<svg width="28px" height="18px" viewBox="0 0 28 18" version="1.1" xmlns="http://www.w3.org/2000/svg" xmlns:xlink="http://www.w3.org/1999/xlink">
    <!-- Generator: Sketch 63.1 (92452) - https://sketch.com -->
    <title>noun_tray_1695509</title>
    <desc>Created with Sketch.</desc>
    <g id="Page-1" stroke="none" stroke-width="1" fill="none" fill-rule="evenodd">
        <g id="Main_v3" transform="translate(-1075.000000, -506.000000)" fill="#5951FF" fill-rule="nonzero" stroke="#5951FF" stroke-width="0.5">
            <g id="noun_tray_1695509" transform="translate(1076.000000, 507.000000)">
                <path d="M25.5666667,13.1968947 L24.1583333,13.1968947 C23.9468789,7.54671766 19.7650441,2.89491443 14.3,2.23064916 C14.4216646,2.0091606 14.4858318,1.75923903 14.4863333,1.50490899 C14.4863333,0.673770695 13.8305797,0 13.0216667,0 C12.2127536,0 11.557,0.673770695 11.557,1.50490899 C11.5575015,1.75923903 11.6216687,2.0091606 11.7433333,2.23064916 C6.26291592,2.87664798 2.06021432,7.53324146 1.846,13.1968947 L0.433333333,13.1968947 C0.194009942,13.1968947 0,13.3962352 0,13.6421341 C0.0023866152,15.3378198 1.33965818,16.7118335 2.99,16.7142857 L23.01,16.7142857 C24.6603418,16.7118335 25.9976134,15.3378198 26,13.6421341 C26,13.3962352 25.8059901,13.1968947 25.5666667,13.1968947 Z M13,0.863764305 C13.2545301,0.863764305 13.4839127,1.02155131 13.5809073,1.26334147 C13.677902,1.50513163 13.6233455,1.78316028 13.4427438,1.96744432 C13.2621421,2.15172836 12.9911771,2.20585849 12.7565295,2.10452795 C12.5218818,2.00319741 12.3699113,1.76642625 12.3716667,1.50490899 C12.3740483,1.15009556 12.6546663,0.863764305 13,0.863764305 L13,0.863764305 Z M13,3.01427044 C18.5393382,3.01900925 23.0900563,7.51016546 23.3176667,13.1968947 L2.68233333,13.1968947 C2.91213051,7.51117808 7.46155853,3.02129507 13,3.01427044 Z M23.01,15.823807 L2.99,15.823807 C1.96025133,15.8240229 1.07261638,15.0795143 0.866666667,14.0428495 L25.1333333,14.0428495 C24.9273836,15.0795143 24.0397487,15.8240229 23.01,15.823807 L23.01,15.823807 Z" id="Shape"></path>
            </g>
        </g>
    </g>
</svg>