<?xml version="1.0" encoding="utf-8"?>
<!-- Generator: Adobe Illustrator 21.1.0, SVG Export Plug-In . SVG Version: 6.00 Build 0)  -->
<svg version="1.1" id="Layer_1" xmlns="http://www.w3.org/2000/svg" xmlns:xlink="http://www.w3.org/1999/xlink" x="0px" y="0px"
	 viewBox="0 0 100 100" style="enable-background:new 0 0 100 100;" xml:space="preserve">
<style type="text/css">
	.st0{fill:#5951FF;}
</style>
<g>
	<rect x="35.5" y="43.2" class="st0" width="8.3" height="16.4"/>
	<path class="st0" d="M62.8,41.9h-6.7c0.5-2.5,0.9-5.2-0.6-7.2c-1-1.3-2.6-2.1-4.9-2.3c-0.1,0-0.2,0-0.2,0c-1.3,0-2.4,1-2.6,2.3
		c-0.4,4.5-1.6,7-2.9,8.2c-0.2-0.5-0.6-0.9-1.2-0.9h-8c-0.7,0-1.3,0.6-1.3,1.3v16.1c0,0.7,0.6,1.3,1.3,1.3h8c0.6,0,1.1-0.4,1.2-0.9
		c0.9,0.6,2.1,0.9,3.5,0.9h13.2c1.3,0,2.4-1,2.6-2.5l1.4-12.9c0.1-1-0.1-1.9-0.7-2.6C64.6,42.4,63.9,41.9,62.8,41.9z M42.5,44.7v9.9
		v3.5H37v-8.7h2.7c0.7,0,1.3-0.6,1.3-1.3s-0.6-1.3-1.3-1.3H37v-2.4h5.5V44.7z M63.2,45.1L61.8,58c0,0.1-0.1,0.2-0.1,0.2l0,0H48.5
		c-3,0-3.4-2.2-3.4-3.5v-9c0.8-0.3,1.8-1,2.8-2.3c1.4-1.9,2.2-4.8,2.6-8.5c0,0,0-0.1,0.1-0.1c1.5,0.1,2.6,0.6,3.1,1.3
		c1,1.4,0.4,4-0.1,6.3l-0.1,0.4c-0.1,0.4,0,0.8,0.2,1.1s0.6,0.5,1,0.5h8.2c0.2,0,0.3,0,0.3,0.1C63.2,44.5,63.2,44.8,63.2,45.1z"/>
</g>
</svg>
