<?xml version="1.0" encoding="utf-8"?>
<!-- Generator: Adobe Illustrator 21.1.0, SVG Export Plug-In . SVG Version: 6.00 Build 0)  -->
<svg version="1.1" id="Layer_1" xmlns="http://www.w3.org/2000/svg" xmlns:xlink="http://www.w3.org/1999/xlink" x="0px" y="0px"
	 viewBox="0 0 500 250" style="enable-background:new 0 0 500 250;" xml:space="preserve">
<style type="text/css">
	.st0{fill:none;stroke:#5951FF;stroke-width:10;stroke-miterlimit:10;}
	.st1{fill:none;}
	.st2{enable-background:new    ;}
	.st3{fill:#5951FF;}
</style>
<circle class="st0" cx="250" cy="121.4" r="103"/>
<rect x="197.4" y="61.7" class="st1" width="123" height="143.3"/>
<g class="st2">
	<path class="st3" d="M278,94c-7-5.1-14.4-8.8-21.8-10.4v30.7c24.3,6.1,34.7,15.7,34.7,32.8v0.3c0,17.4-13.8,29.1-34.1,31v15.7H243
		v-16c-13.9-1.6-27-7.2-37.8-15.8l10.2-14.7c9.1,7.5,17.8,12.3,28.2,14.1v-31.5c-23.4-6.1-34.2-14.7-34.2-32.8V97
		c0-17.1,13.6-28.8,33.6-30.6v-9.3h13.9v9.6C268.4,68.2,278,72.4,287,79L278,94z M243.6,111V82.6c-10.2,1-15.4,6.2-15.4,13.3v0.2
		C228.2,102.8,231.3,107.1,243.6,111z M256.2,133.2v29.1c10.2-1.1,15.8-6.1,15.8-13.8v-0.3C272.1,141.2,268.6,136.9,256.2,133.2z"/>
</g>
</svg>
