<?xml version="1.0" encoding="UTF-8"?>
<svg width="49px" height="44px" viewBox="0 0 49 44" version="1.1" xmlns="http://www.w3.org/2000/svg" xmlns:xlink="http://www.w3.org/1999/xlink">
    <!-- Generator: Sketch 53.2 (72643) - https://sketchapp.com -->
    <title>site_features_new_calendar_v1 2</title>
    <desc>Created with Sketch.</desc>
    <g id="Desktop" stroke="none" stroke-width="1" fill="none" fill-rule="evenodd">
        <g id="rest-info-hover" transform="translate(-1182.000000, -923.000000)">
            <g id="Group-7" transform="translate(1060.000000, 725.000000)">
                <g id="Group-2">
                    <g id="site_features_new_calendar_v1-2" transform="translate(122.000000, 198.000000)">
                        <g id="site_features_new_calendar_v1">
                            <ellipse id="Oval" fill="#EE8434" cx="20.4" cy="25" rx="15.9" ry="3.6"></ellipse>
                            <ellipse id="Oval" fill="#F7FCFD" transform="translate(10.511380, 20.095140) rotate(-25.391416) translate(-10.511380, -20.095140) " cx="10.51138" cy="20.09514" rx="4.30000215" ry="5.6000028"></ellipse>
                            <g id="Group">
                                <g>
                                    <path d="M20.4,43.2 C9.5,43.2 0.6,34.3 0.6,23.3 L1.9,23.3 C1.9,33.5 10.2,41.9 20.5,41.9 C30.8,41.9 39,33.6 39,23.3 L40.3,23.3 C40.2,34.3 31.3,43.2 20.4,43.2 Z" id="Path" stroke="#424242" stroke-width="0.5792" fill="#424242"></path>
                                    <path d="M20.4,30 C7.6,30 0.6,26.4 0.6,23.1 C0.6,21.3 2.3,19.7 5.4,18.5 L5.9,19.7 C3.3,20.7 1.9,21.9 1.9,23.1 C1.9,25.8 9.5,28.7 20.5,28.7 C31.5,28.7 39,25.7 39,23 C39,20.3 31.3,17.3 20.4,17.3 C18.2,17.3 16,17.4 13.9,17.7 L13.8,16.5 C15.9,16.2 18.2,16.1 20.5,16.1 C33.4,16.1 40.3,19.7 40.3,23 C40.3,26.3 33.2,30 20.4,30 Z" id="Path" stroke="#424242" stroke-width="0.5792" fill="#424242"></path>
                                    <path d="M11.3,26.2 L11.3,26.2 C9.5,26.2 7.8,25.2 6.9,23.7 C4.7,19.9 4.8,15.8 7.3,14.4 C7.8,14.1 8.5,13.9 9.1,13.9 C11.4,13.9 13.9,15.8 15.6,18.6 C17,21 16.2,24.1 13.8,25.5 C13,25.9 12.2,26.2 11.3,26.2 Z M9.1,15.2 C8.7,15.2 8.2,15.3 7.9,15.5 C6.1,16.5 6.2,20 8,23.1 C8.7,24.3 9.9,25 11.2,25 C11.9,25 12.5,24.8 13.1,24.5 C14.9,23.4 15.5,21.1 14.4,19.3 C13.1,16.8 10.9,15.2 9.1,15.2 Z" id="Shape" stroke="#424242" stroke-width="0.3287" fill="#424242" fill-rule="nonzero"></path>
                                    <path d="M36.3,26.4 C35.1,23.3 27.2,21.4 20.4,21.4 C18.8,21.4 17.3,21.5 15.8,21.7 L15.6,20.5 C17.1,20.3 18.7,20.2 20.4,20.2 C29,20.2 36.2,22.6 37.5,25.9 L36.3,26.4 Z" id="Path" stroke="#424242" stroke-width="0.5792" fill="#424242"></path>
                                    <path d="M17.7,26.3 C17.5,26.3 17.4,26.2 17.3,26.1 C17,25.8 17,25.5 17.3,25.2 C17.9,24.6 17.9,24.5 17.5,23.5 C17.4,23.2 17.3,23 17.2,22.6 C16.6,20.7 16.8,20.1 18,18.9 C18.5,18.4 18.5,18.3 18.1,17.7 C18,17.5 17.9,17.3 17.8,17 C17.2,15.5 17.8,14.3 18.6,12.8 C19.2,11.5 18.3,9.4 17.7,8.8 C17.5,8.5 17.5,8.2 17.7,7.9 C18,7.7 18.3,7.7 18.6,7.9 C19.3,8.6 20.7,11.4 19.7,13.3 C18.8,15 18.6,15.6 19,16.4 C19.1,16.6 19.2,16.8 19.3,17 C19.7,17.7 20.1,18.5 19,19.7 C18.1,20.6 18,20.7 18.5,22.1 C18.6,22.4 18.7,22.7 18.8,22.9 C19.2,23.9 19.5,24.7 18.3,25.9 C18,26.2 17.9,26.3 17.7,26.3 Z" id="Path" stroke="#424242" stroke-width="0.5792" fill-opacity="0.671761775" fill="#F0AD4E"></path>
                                    <path d="M25.5,24.4 C25.4,24.4 25.3,24.4 25.2,24.3 C24.9,24.1 24.8,23.8 24.9,23.4 C25.3,22.6 25.2,22.5 24.5,21.7 C24.3,21.5 24.1,21.3 23.9,21 C22.7,19.4 22.7,18.8 23.4,17.2 C23.7,16.6 23.7,16.5 23.1,16 C22.9,15.8 22.7,15.7 22.6,15.5 C21.5,14.3 21.7,12.9 22,11.2 C22.2,9.8 20.6,8.1 19.9,7.7 C19.6,7.5 19.5,7.2 19.6,6.8 C19.8,6.5 20.1,6.4 20.5,6.5 C21.4,7 23.5,9.1 23.3,11.3 C23,13.1 23,13.9 23.6,14.5 C23.8,14.7 23.9,14.8 24.1,15 C24.7,15.5 25.3,16.2 24.7,17.6 C24.2,18.7 24.1,18.9 25,20.1 C25.2,20.4 25.4,20.6 25.5,20.8 C26.2,21.7 26.8,22.3 26,23.8 C25.9,24.3 25.7,24.4 25.5,24.4 Z" id="Path" stroke="#424242" stroke-width="0.5792" fill-opacity="0.671761775" fill="#F0AD4E"></path>
                                    <path d="M22.2,25.5 C22.1,25.5 22,25.4 21.9,25.4 C21.6,25.2 21.5,24.8 21.7,24.5 C22.2,23.8 22.1,23.6 21.5,22.8 C21.3,22.6 21.2,22.3 21,22 C20,20.3 20.1,19.7 21,18.2 C21.4,17.6 21.3,17.6 20.9,17 C20.7,16.8 20.6,16.6 20.4,16.4 C19.5,15.1 19.9,13.8 20.3,12.1 C20.7,10.7 19.3,8.9 18.6,8.4 C18.3,8.2 18.2,7.8 18.4,7.5 C18.6,7.2 19,7.1 19.3,7.3 C20.2,7.9 22,10.3 21.4,12.4 C20.9,14.2 20.8,14.9 21.3,15.6 C21.5,15.8 21.6,16 21.7,16.1 C22.2,16.7 22.8,17.4 21.9,18.8 C21.3,19.9 21.2,20 21.9,21.3 C22.1,21.6 22.2,21.8 22.4,22 C23,22.9 23.5,23.7 22.6,25.1 C22.6,25.4 22.4,25.5 22.2,25.5 Z" id="Path" stroke="#424242" stroke-width="0.5792" fill-opacity="0.671761775" fill="#F0AD4E"></path>
                                    <path d="M48.4,1.5 L48.1,0.3 C48.1,0.2 48,0.1 47.9,0.1 C47.8,-7.10542736e-15 47.7,-7.10542736e-15 47.6,-7.10542736e-15 L16.5,8.5 C16.3,8.6 16.2,8.7 16.3,8.9 L16.5,9.5 C16.5,9.6 16.6,9.7 16.7,9.7 C16.8,9.8 16.8,9.8 16.9,9.8 C17,9.8 17,9.8 17,9.8 L48.3,1.9 C48.3,1.8 48.4,1.7 48.4,1.5 Z" id="Path" fill="#424242"></path>
                                    <path d="M48.3,3.6 C48.3,3.5 48.2,3.4 48.1,3.4 C48,3.3 47.9,3.3 47.8,3.3 L16.3,10.2 C16.1,10.3 16,10.4 16,10.6 L16.1,11.2 C16.1,11.3 16.2,11.4 16.2,11.4 C16.3,11.5 16.3,11.5 16.4,11.5 L16.5,11.5 L48.1,5.2 C48.3,5.1 48.4,5 48.4,4.8 L48.3,3.6 Z" id="Path" fill="#424242"></path>
                                    <path d="M4.5,26.4 L3.3,25.9 C3.8,24.8 4.8,23.7 6.5,22.8 L7.1,23.9 C5.7,24.7 4.8,25.5 4.5,26.4 Z" id="Path" stroke="#424242" stroke-width="0.5792" fill="#424242"></path>
                                </g>
                                <circle id="Oval" fill="#F0AD4E" cx="11.2" cy="20.8" r="1.7"></circle>
                            </g>
                        </g>
                    </g>
                </g>
            </g>
        </g>
    </g>
</svg>
