<?xml version="1.0" encoding="utf-8"?>
<!-- Generator: Adobe Illustrator 24.0.2, SVG Export Plug-In . SVG Version: 6.00 Build 0)  -->
<svg version="1.1" id="Layer_1" xmlns="http://www.w3.org/2000/svg" xmlns:xlink="http://www.w3.org/1999/xlink" x="0px" y="0px"
	 viewBox="0 0 100 100" style="enable-background:new 0 0 100 100;" xml:space="preserve">
<style type="text/css">
	.st0{fill:#FFFFFF;stroke:#5951FF;stroke-miterlimit:10;}
	.st1{fill:#5951FF;}
	.st2{fill:none;stroke:#5951FF;stroke-width:0.844;stroke-miterlimit:10;}
	.st3{fill:#3BC780;}
	.st4{fill:none;stroke:#FCFCFC;stroke-width:0.8227;stroke-linecap:round;stroke-linejoin:round;stroke-miterlimit:10;}
	.st5{fill:none;stroke:#3BC780;stroke-miterlimit:10;}
</style>
<path class="st0" d="M63.4,80.8H43.3c-2.8,0-5-2.2-5-5V26.2c0-2.8,2.2-5,5-5h20.1c2.7,0,5,2.2,5,5v49.6
	C68.4,78.6,66.1,80.8,63.4,80.8z"/>
<rect x="40.8" y="28.7" class="st1" width="25" height="44.9"/>
<path class="st1" d="M53.3,79.3c-1.3,0-2.3-1-2.3-2.3s1-2.3,2.3-2.3s2.3,1,2.3,2.3S54.6,79.3,53.3,79.3z M53.3,75.2
	c-1,0-1.8,0.8-1.8,1.8s0.8,1.8,1.8,1.8s1.8-0.8,1.8-1.8S54.3,75.2,53.3,75.2z"/>
<line class="st2" x1="50.3" y1="25.2" x2="56.4" y2="25.2"/>
<circle class="st1" cx="50.3" cy="25.2" r="0.4"/>
<circle class="st1" cx="56.4" cy="25.2" r="0.4"/>
<path class="st3" d="M23.8,39v12.5h2.8c0,0,0.1,0,0.1-0.1c0.3-0.1,0.6,0,0.8,0.2c0.1,0,0.3,0.1,0.4,0.3c0.4,0.4,0.8,0.8,1.1,1.2
	c0.1,0.1,0.1,0.1,0.2,0.2c-0.1,0.2,0,0.5,0.3,0.7c0.4,0.2,0.8,0.5,1,1c0.1,0.2,0.3,0.3,0.4,0.3l0,0c0,0,0,0.1,0.1,0.1
	c0.1,0.1,0.2,0.1,0.3,0.1c0.2,0,0.3-0.2,0.3-0.5c0-0.1,0-0.2,0-0.4v-0.1c0,0,0-0.2,0-0.1c0-0.1,0-0.1,0-0.2v-0.1
	c-0.1-0.6-0.1-1.2-0.2-1.8v-0.1c0-0.3,0.3-0.6,0.6-0.6v-0.1h11.5V39H23.8z"/>
<g>
	<line class="st4" x1="38.3" y1="42" x2="27.2" y2="42"/>
	<line class="st4" x1="33.9" y1="45" x2="27.2" y2="45"/>
	<polygon class="st5" points="27.5,51.7 23.9,51.7 23.9,38.9 43.5,38.9 43.5,51.7 31.6,51.7 31.6,55.8 	"/>
</g>
</svg>
