<?xml version="1.0" encoding="UTF-8"?>
<svg width="20px" height="20px" viewBox="0 0 20 20" version="1.1" xmlns="http://www.w3.org/2000/svg" xmlns:xlink="http://www.w3.org/1999/xlink">
    <!-- Generator: Sketch 64 (93537) - https://sketch.com -->
    <title>noun_Circle Question_621424</title>
    <desc>Created with Sketch.</desc>
    <g id="Page-1" stroke="none" stroke-width="1" fill="none" fill-rule="evenodd">
        <g id="Main_v3" transform="translate(-213.000000, -782.000000)" fill="#5951FF" fill-rule="nonzero">
            <g id="noun_Circle-Question_621424" transform="translate(213.000000, 782.000000)">
                <path d="M10,0 C4.46666667,0 0,4.46666667 0,10 C0,15.5333333 4.46666667,20 10,20 C15.5333333,20 20,15.5333333 20,10 C20,4.46666667 15.5333333,0 10,0 Z M10,15.5555556 C9.33333333,15.5555556 8.8,15.0222222 8.8,14.3555556 C8.8,13.6888889 9.33333333,13.1555556 10,13.1555556 C10,13.1555556 10,13.1555556 10,13.1555556 C10.6666667,13.1555556 11.2,13.6888889 11.2,14.3555556 C11.2,15.0222222 10.6666667,15.5555556 10,15.5555556 Z M12.7111111,8.8 C12.5777778,8.97777778 12.4222222,9.15555556 12.2666667,9.31111111 C12.1555556,9.42222222 12.0222222,9.53333333 11.8666667,9.71111111 C11.6888889,9.86666667 11.5555556,10 11.4444444,10.1333333 C11.3333333,10.2444444 11.2222222,10.3555556 11.1555556,10.4444444 C10.9555556,10.7111111 10.8666667,11.0666667 10.8888889,11.4 L10.8888889,12.0888889 L9.15555556,12.0888889 L9.15555556,11.1555556 C9.13333333,10.8444444 9.17777778,10.5333333 9.31111111,10.2222222 C9.48888889,9.93333333 9.68888889,9.66666667 9.95555556,9.42222222 L11.0666667,8.31111111 C11.3111111,8.04444444 11.4222222,7.71111111 11.4222222,7.35555556 C11.4222222,7 11.2888889,6.66666667 11.0444444,6.42222222 C10.8,6.17777778 10.4444444,6.04444444 10.0888889,6.04444444 C9.73333333,6.02222222 9.37777778,6.15555556 9.11111111,6.4 C8.84444444,6.64444444 8.68888889,7 8.66666667,7.35555556 L6.8,7.35555556 C6.86666667,6.53333333 7.24444444,5.75555556 7.86666667,5.22222222 C8.51111111,4.68888889 9.31111111,4.42222222 10.1555556,4.44444444 C10.9555556,4.4 11.7555556,4.66666667 12.3777778,5.17777778 C12.9555556,5.66666667 13.2444444,6.37777778 13.2444444,7.26666667 C13.2222222,7.82222222 13.0444444,8.37777778 12.7111111,8.8 Z" id="Shape"></path>
            </g>
        </g>
    </g>
</svg>